<svg xmlns="http://www.w3.org/2000/svg" version="1.1" xmlns:xlink="http://www.w3.org/1999/xlink" xmlns:svgjs="http://svgjs.dev/svgjs" width="1000" height="194" viewBox="0 0 1000 194"><g transform="matrix(1,0,0,1,-0.6060589391934172,0.1501508546623569)"><svg viewBox="0 0 396 77" data-background-color="#ffffff" preserveAspectRatio="xMidYMid meet" height="194" width="1000" xmlns="http://www.w3.org/2000/svg" xmlns:xlink="http://www.w3.org/1999/xlink"><g id="tight-bounds" transform="matrix(1,0,0,1,0.23999933992058686,-0.059595957778356023)"><svg viewBox="0 0 395.52 77.11919191555668" height="77.11919191555668" width="395.52"><g><svg viewBox="0 0 567.5508600476231 110.66207447879222" height="77.11919191555668" width="395.52"><g><rect width="9.92997022861527" height="110.66207447879222" x="136.10620335666425" y="0" fill="#d88f4a" opacity="1" stroke-width="0" stroke="transparent" fill-opacity="1" class="rect-o-0" data-fill-palette-color="primary" rx="1%" id="o-0" data-palette-color="#d88f4a"></rect></g><g transform="matrix(1,0,0,1,172.03086004762315,0.2752787922357953)"><svg viewBox="0 0 395.52 110.11151689432063" height="110.11151689432063" width="395.52"><g id="textblocktransform"><svg viewBox="0 0 395.52 110.11151689432063" height="110.11151689432063" width="395.52" id="textblock"><g><svg viewBox="0 0 395.52 110.11151689432063" height="110.11151689432063" width="395.52"><g transform="matrix(1,0,0,1,0,0)"><svg width="395.52" viewBox="1.0499999523162842 -36.15999984741211 137.38999938964844 37.81999969482422" height="110.11151689432063" data-palette-color="#d88f4a"><g class="undefined-text-0" data-fill-palette-color="primary" id="text-0"><path d="M1.64-1.78L1.64-1.78Q1.95-2.42 2.29-3.21 2.64-4 2.93-4.93L2.93-4.93 3.59-6.54Q3.15-7.2 2.7-7.97 2.25-8.74 1.88-9.55 1.51-10.35 1.28-11.16 1.05-11.96 1.05-12.72L1.05-12.72Q1.05-12.77 1.43-12.81 1.81-12.84 2.38-12.87 2.95-12.89 3.63-12.9 4.3-12.92 4.87-12.93 5.44-12.94 5.82-12.95 6.2-12.96 6.2-12.96L6.2-12.96Q6.76-14.43 7.3-15.75 7.84-17.07 8.37-18.41 8.91-19.75 9.45-21.15 9.99-22.56 10.52-24.17L10.52-24.17Q11.55-27.2 12.52-29.49 13.5-31.79 14.36-33.76L14.36-33.76Q14.45-34.01 14.69-34.22 14.92-34.42 15.19-34.57 15.45-34.72 15.71-34.81 15.97-34.91 16.11-34.96L16.11-34.96Q16.21-34.99 16.86-35.18 17.5-35.38 18.33-35.6 19.17-35.82 19.98-35.99 20.8-36.16 21.29-36.16L21.29-36.16 21.73-36.16Q22.12-36.16 22.47-35.97 22.83-35.79 22.95-35.25L22.95-35.25Q24.12-32.25 25.45-28.7 26.78-25.15 28.05-20.87L28.05-20.87Q28.74-18.58 29.39-16.53 30.05-14.48 30.71-12.52 31.37-10.57 32.04-8.62 32.71-6.67 33.42-4.59L33.42-4.59Q33.64-3.71 33.87-3.2 34.11-2.69 34.3-2.39 34.5-2.1 34.62-1.97 34.74-1.83 34.74-1.68L34.74-1.68Q34.74-1.54 34.28-1.39L34.28-1.39 29.03 0.32Q28.44 0.54 27.83 0.76 27.22 0.98 26.68 1.15 26.15 1.32 25.74 1.43 25.34 1.54 25.17 1.54L25.17 1.54 25.02 1.54Q24.68 1.54 24.54 1.33 24.39 1.12 24.34 0.93L24.34 0.93Q24.1 0.12 23.85-0.52 23.61-1.17 23.38-1.82 23.14-2.47 22.91-3.2 22.68-3.93 22.46-4.93L22.46-4.93Q22.41-5.05 22.19-5.14 21.97-5.22 21.67-5.27 21.36-5.32 21.02-5.33 20.68-5.35 20.39-5.35L20.39-5.35Q19.46-5.35 18.88-5.33 18.31-5.32 17.87-5.31 17.43-5.3 17.03-5.29 16.63-5.27 16.04-5.27L16.04-5.27Q15.33-5.27 14.59-5.29 13.84-5.3 13.23-5.32L13.23-5.32 11.84-5.37Q11.21-3.61 10.57-2.08 9.94-0.54 9.2 1.1L9.2 1.1Q9.16 1.29 8.97 1.42 8.79 1.54 8.59 1.54L8.59 1.54Q8.45 1.54 8.42 1.51L8.42 1.51Q6.05 0.66 4.44-0.17 2.83-1 1.64-1.78ZM18.09-23.73L18.09-23.73Q17.5-21.56 16.93-19.79 16.36-18.02 15.88-16.65 15.41-15.28 15.06-14.34 14.72-13.4 14.58-12.89L14.58-12.89 14.58-12.67Q14.58-12.52 14.55-12.48L14.55-12.48 20.41-12.48Q20.14-13.67 19.84-14.89 19.53-16.11 19.24-17.46 18.95-18.8 18.65-20.34 18.36-21.88 18.09-23.73ZM36.91-16.5L36.91-16.5Q36.91-19.19 37.56-21.67 38.21-24.15 39.4-26.29 40.6-28.44 42.29-30.2 43.99-31.96 46.09-33.22 48.19-34.47 50.64-35.16 53.1-35.84 55.81-35.84L55.81-35.84Q57.96-35.84 59.58-35.56 61.2-35.28 62.41-34.85 63.62-34.42 64.44-33.91 65.26-33.4 65.79-32.93L65.79-32.93Q65.77-32.93 65.77-32.76L65.77-32.76Q65.77-32.4 65.83-31.42 65.89-30.44 65.98-29.25 66.06-28.05 66.12-26.82 66.18-25.59 66.18-24.68L66.18-24.68Q66.18-24.54 66.09-24.35 65.99-24.17 65.6-24.17L65.6-24.17Q65.38-24.17 65.06-24.24L65.06-24.24Q64.55-24.39 63.77-24.91 62.99-25.44 61.95-26.01 60.91-26.59 59.63-27.04 58.35-27.49 56.83-27.49L56.83-27.49Q54.83-27.49 53.2-26.7 51.56-25.9 50.41-24.51 49.27-23.12 48.63-21.2 48-19.29 48-17.02L48-17.02Q48-15.01 48.44-13.2 48.87-11.38 49.77-10.01 50.66-8.64 51.99-7.82 53.32-7.01 55.08-7.01L55.08-7.01Q56.47-7.01 57.54-7.1 58.62-7.2 59.54-7.42 60.47-7.64 61.36-8.01 62.25-8.37 63.28-8.94L63.28-8.94Q63.33-8.96 63.52-8.96L63.52-8.96Q63.69-8.96 63.75-8.83 63.82-8.69 63.82-8.28L63.82-8.28 63.82-5.35Q63.82-4.54 63.8-3.77 63.79-3 63.78-2.39 63.77-1.78 63.75-1.4 63.74-1.03 63.72-1.03L63.72-1.03Q62.6-0.32 61.31 0.13 60.03 0.59 58.68 0.84 57.32 1.1 55.95 1.18 54.59 1.27 53.32 1.27L53.32 1.27Q49.88 1.27 46.87-0.04 43.87-1.34 41.66-3.69 39.45-6.03 38.18-9.3 36.91-12.57 36.91-16.5ZM92.89-33.89L100.51-35.94Q100.63-35.96 100.74-35.97 100.85-35.99 100.95-35.99L100.95-35.99Q101.39-35.99 101.66-35.71 101.92-35.42 102.02-34.72L102.02-34.72Q102.07-34.28 102.18-33.48 102.29-32.69 102.42-31.73 102.56-30.76 102.72-29.74 102.88-28.71 103-27.84 103.12-26.98 103.22-26.35 103.32-25.73 103.34-25.56L103.34-25.56Q103.88-21.24 104.29-18.63 104.71-16.02 104.88-14.77L104.88-14.77 106.51-1.56 106.27-0.81Q106.22-0.63 105.63-0.39 105.05-0.15 104.22 0.13 103.39 0.42 102.41 0.68 101.44 0.95 100.61 1.17 99.78 1.39 99.2 1.53 98.63 1.66 98.6 1.66L98.6 1.66Q98.02 1.66 97.68 0.81 97.33-0.05 97.11-1.37 96.89-2.69 96.76-4.25 96.63-5.81 96.45-7.25L96.45-7.25Q96.31-8.45 96.19-9.67 96.06-10.89 95.92-12.16L95.92-12.16 94.97-19.29 85.91-2.71Q85.49-2.12 85.08-1.87 84.66-1.61 84.3-1.61L84.3-1.61Q83.76-1.61 83.45-1.93 83.15-2.25 83.03-2.71L83.03-2.71Q82.56-4.25 82.23-5.31 81.9-6.37 81.62-7.25 81.34-8.13 81.1-8.96 80.85-9.79 80.55-10.88 80.24-11.96 79.87-13.44 79.49-14.92 78.95-17.07L78.95-17.07 78.19-13.55 74.68 1.37Q74.6 1.66 74.07 1.66L74.07 1.66Q73.55 1.66 72.66 1.46 71.77 1.27 70.81 0.99 69.84 0.71 68.93 0.4 68.01 0.1 67.48-0.15L67.48-0.15Q67.35-0.2 67.17-0.38 66.99-0.56 66.99-0.95L66.99-0.95Q66.99-1.05 67.06-1.37 67.13-1.68 67.24-2.11 67.35-2.54 67.49-2.98 67.62-3.42 67.74-3.76L67.74-3.76Q68.06-4.59 68.32-5.71 68.57-6.84 68.79-7.98 69.01-9.13 69.2-10.18 69.38-11.23 69.55-11.94L69.55-11.94 72.55-25.95 73.46-29.91Q73.63-30.66 73.79-31.38 73.95-32.1 74.07-32.69 74.19-33.28 74.26-33.64 74.34-34.01 74.34-34.06L74.34-34.06 80.44-35.94Q80.78-35.94 81.04-35.88 81.29-35.82 81.37-35.47L81.37-35.47 86.23-19.85 92.89-33.89ZM132.61-20.26L132.61-20.26Q132.51-19.92 132.24-19.3 131.97-18.68 131.62-17.9 131.27-17.11 130.86-16.22 130.46-15.33 130.07-14.43L130.07-14.43Q129.92-14.09 129.8-13.93 129.68-13.77 129.41-13.7 129.14-13.62 128.67-13.61 128.19-13.6 127.34-13.57L127.34-13.57 123.94-13.5 123.26-6.03 135.78-6.03 135.78-5.08Q135.73-5.03 135.37-4.43 135-3.83 134.51-3 134.03-2.17 133.49-1.33 132.95-0.49 132.59 0.02L132.59 0.02Q132.34 0.46 132.02 0.72 131.71 0.98 131.33 1.1 130.95 1.22 130.5 1.25 130.05 1.27 129.51 1.27L129.51 1.27Q127.31 1.27 124.93 1.17 122.55 1.07 120.18 0.93 117.81 0.78 115.56 0.6 113.3 0.42 111.37 0.22L111.37 0.22Q111.2 0.2 111.06 0.02 110.93-0.15 110.93-0.37L110.93-0.37Q110.83-0.37 111.06-0.78 111.3-1.2 111.71-1.86 112.13-2.51 112.63-3.36 113.13-4.2 113.59-5.05L113.59-5.05 113.98-10.55Q114.08-11.94 114.14-12.62 114.2-13.31 114.2-13.35L114.2-13.35Q112.74-13.38 112.02-13.5 111.3-13.62 111.3-14.04L111.3-14.04Q111.3-14.23 111.65-14.77 112-15.31 112.52-16 113.03-16.7 113.6-17.46 114.18-18.21 114.62-18.85L114.62-18.85 115.23-27.15 115.15-27.15Q114.62-27.12 114.18-27.11 113.74-27.1 113.37-27.1L113.37-27.1Q112.2-27.1 111.7-27.23 111.2-27.37 111.2-27.73L111.2-27.73Q111.2-27.91 111.49-28.44 111.78-28.98 112.22-29.68 112.66-30.37 113.15-31.14 113.64-31.91 114.03-32.57L114.03-32.57 115.5-35.06 125.7-35.06 137.74-35.94Q137.76-35.94 137.87-35.93 137.98-35.91 138.1-35.85 138.22-35.79 138.33-35.64 138.44-35.5 138.44-35.23L138.44-35.23 138.08-33.96Q137.91-33.42 137.66-32.82 137.42-32.23 137.13-31.59L137.13-31.59 136.05-28.76Q135.88-28.34 135.66-28.13 135.44-27.91 134.73-27.88L134.73-27.88Q132.88-27.83 130.6-27.72 128.31-27.61 125.36-27.51L125.36-27.51Q125.26-27.17 125.26-26.97 125.26-26.76 125.21-26.17L125.21-26.17 125.09-25.05Q125.04-24.27 124.94-23.36 124.85-22.46 124.7-21.14L124.7-21.14Q125.94-21.19 127.13-21.24 128.31-21.29 129.29-21.33 130.27-21.36 130.99-21.39 131.71-21.41 132-21.41L132-21.41Q132.19-21.41 132.44-21.26 132.68-21.12 132.68-20.7L132.68-20.7Q132.68-20.51 132.61-20.26Z" fill="#d88f4a" data-fill-palette-color="primary"></path></g></svg></g></svg></g></svg></g></svg></g><g transform="matrix(1,0,0,1,0,0.2752787922357953)"><svg viewBox="0 0 110.11151689432063 110.11151689432063" height="110.11151689432063" width="110.11151689432063"><g><svg xmlns="http://www.w3.org/2000/svg" data-name="Layer 1" viewBox="10.539999961853027 10.539999961853027 18.919998168945312 18.919998168945312" x="0" y="0" height="110.11151689432063" width="110.11151689432063" class="icon-icon-0" data-fill-palette-color="accent" id="icon-0"><path d="M29.46 20l-2.9-2.72 0.13-4-4 0.13L20 10.54l-2.72 2.9-4-0.13 0.13 4L10.54 20l2.9 2.72-0.13 4 4-0.13L20 29.46l2.72-2.9 4 0.13-0.13-4Zm-4.84 4.62l-2.75-0.09-1.88 2-1.88-2-2.75 0.09 0.09-2.75-2-1.88 2-1.88-0.09-2.75 2.75 0.09 1.88-2 1.88 2 2.75-0.09-0.09 2.75 2 1.88-2 1.88Z" fill="#612f0b" data-fill-palette-color="accent"></path><circle cx="20" cy="20" r="3.0" fill="#612f0b" data-fill-palette-color="accent"></circle></svg></g></svg></g></svg></g><defs></defs></svg><rect width="395.52" height="77.11919191555668" fill="none" stroke="none" visibility="hidden"></rect></g></svg></g></svg>